<svg height="512" viewBox="0 0 510 510" width="512" xmlns="http://www.w3.org/2000/svg"><path d="M240 367.5V435h15l15-33.75-15-33.75h-15z" fill="#e2dff4"/><path d="M270 367.5h-15V435h15v-67.5z" fill="#bebcdd"/><path d="M240 75v67.5h15l15-33.75L255 75h-15z" fill="#e2dff4"/><path d="M270 75h-15v67.5h15V75z" fill="#bebcdd"/><path d="M75 240h67.5v30H75z" fill="#e2dff4"/><path d="M367.5 270H435v-30h-67.5z" fill="#bebcdd"/><path d="M109.345 379.368l55.442-55.443 21.21 21.21-55.442 55.443z" fill="#e2dff4"/><path d="M323.943 164.844l21.213 21.213 55.45-55.451-21.213-21.213-55.45 55.451zM323.943 345.156l55.45 55.45 21.213-21.213-55.45-55.45-21.213 21.213z" fill="#bebcdd"/><path d="M109.368 130.609l21.21-21.21 55.442 55.442-21.21 21.21z" fill="#e2dff4"/><path d="M127.5 255c0 70.302 57.194 127.5 127.5 127.5L270 255l-15-127.5c-70.302 0-127.5 57.194-127.5 127.5z" fill="#4e6ba6"/><path d="M382.5 255c0-70.302-57.194-127.5-127.5-127.5v255c70.302 0 127.5-57.194 127.5-127.5z" fill="#28487a"/><path d="M157.5 255c0 26.757 10.941 51.255 28.295 68.609C186.155 323.97 270 255 270 255l-15-97.5c-53.76 0-97.5 43.737-97.5 97.5z" fill="#f9f9f9"/><path d="M352.5 255c0-53.76-43.737-97.5-97.5-97.5V255l69.205 68.609C342.274 305.385 352.5 280.914 352.5 255z" fill="#e2dff4"/><path d="M185.795 323.609C204.068 342.039 228.791 352.5 255 352.5l15-37.5-15-37.5c-30.693 0-57.7 18.651-69.205 46.109z" fill="#a7cafc"/><path d="M255 277.5v75c26.162 0 50.899-10.428 69.205-28.891C312.718 296.195 285.74 277.5 255 277.5z" fill="#8493fb"/><path d="M202.5 255c0 28.947 23.55 52.5 52.5 52.5l15-52.5-15-52.5c-28.948 0-52.5 23.55-52.5 52.5z" fill="#edbba7"/><path d="M307.5 255c0-28.947-23.55-52.5-52.5-52.5v105c28.947 0 52.5-23.551 52.5-52.5z" fill="#e8a38b"/><path d="M210 45c0 24.813 20.186 45 45 45l15-45-15-45c-24.812 0-45 20.187-45 45z" fill="#bfe85f"/><path d="M286.805 13.195C278.657 5.047 267.407 0 255 0v90c12.407 0 23.657-5.047 31.805-13.195 17.59-17.59 17.601-46.009 0-63.61z" fill="#00cb76"/><path d="M240 45c0 8.271 6.729 15 15 15l15-15-15-15c-8.271 0-15 6.729-15 15z" fill="#f9f9f9"/><path d="M265.602 34.398A14.953 14.953 0 00255 30v30c4.136 0 7.886-1.682 10.602-4.398a14.976 14.976 0 000-21.204z" fill="#e2dff4"/><path d="M223.195 496.805C231.343 504.953 242.593 510 255 510l15-45-15-45c-12.407 0-23.657 5.047-31.805 13.195-17.59 17.59-17.601 46.009 0 63.61z" fill="#dd4e4e"/><path d="M286.805 433.195C278.657 425.047 267.407 420 255 420v90c12.407 0 23.657-5.047 31.805-13.195 17.59-17.59 17.601-46.009 0-63.61z" fill="#c21456"/><path d="M244.398 475.602A14.953 14.953 0 00255 480l15-15-15-15a14.953 14.953 0 00-10.602 4.398c-5.863 5.863-5.867 15.337 0 21.204z" fill="#f9f9f9"/><path d="M265.602 454.398A14.953 14.953 0 00255 450v30c4.136 0 7.886-1.682 10.602-4.398 5.863-5.863 5.867-15.337 0-21.204z" fill="#e2dff4"/><circle cx="465" cy="255" fill="#00cb76" r="45"/><circle cx="465" cy="255" fill="#e2dff4" r="15"/><circle cx="45" cy="255" fill="#f4d844" r="45"/><circle cx="45" cy="255" fill="#f9f9f9" r="15"/><path d="M381.967 34.394c-25.816 25.816-25.817 67.822 0 93.639 25.731 25.733 67.739 25.901 93.64 0 25.816-25.816 25.817-67.822 0-93.639-25.816-25.816-67.823-25.82-93.64 0z" fill="#c21456"/><path d="M414.926 47.757a36.157 36.157 0 00-22.336 33.456c0 20.021 16.165 36.196 36.197 36.196 20.018 0 36.195-16.164 36.195-36.196a36.162 36.162 0 00-22.336-33.456 36.428 36.428 0 00-27.72 0z" fill="#e2dff4"/><path d="M34.394 475.606c-25.817-25.816-25.817-67.823 0-93.64 25.816-25.815 67.823-25.816 93.639 0 25.817 25.816 25.817 67.823 0 93.64-25.816 25.816-67.822 25.818-93.639 0z" fill="#bfe85f"/><path d="M55.606 403.18c-14.12 14.12-14.12 37.094 0 51.214 14.12 14.119 37.093 14.12 51.213 0s14.12-37.094 0-51.214-37.092-14.12-51.213 0z" fill="#f9f9f9"/><path d="M34.394 128.033c-25.817-25.816-25.817-67.823 0-93.639 25.816-25.816 67.823-25.817 93.639 0 25.816 25.816 25.816 67.823 0 93.639s-67.822 25.817-93.639 0z" fill="#dd4e4e"/><path d="M55.606 55.606c-14.119 14.12-14.119 37.094 0 51.213 14.12 14.119 37.093 14.12 51.213 0 14.119-14.12 14.119-37.094 0-51.213-14.119-14.118-37.092-14.119-51.213 0z" fill="#f9f9f9"/><path d="M381.967 381.967c-25.816 25.815-25.817 67.822 0 93.64 25.728 25.729 67.734 25.906 93.64 0 25.816-25.816 25.817-67.822 0-93.64-25.816-25.815-67.823-25.819-93.64 0z" fill="#6666fa"/><path d="M403.18 403.18c-14.119 14.12-14.12 37.093 0 51.214 14.119 14.118 37.094 14.121 51.214 0 7.06-7.06 10.589-16.333 10.589-25.607 0-14.976-9.1-27.994-22.336-33.456-13.391-5.528-29.007-2.612-39.467 7.849z" fill="#e2dff4"/></svg>