<svg id="Capa_1" enable-background="new 0 0 510 510" height="512" viewBox="0 0 510 510" width="512" xmlns="http://www.w3.org/2000/svg"><g><path d="m323.13 37.51c-38.098-16.342-98.111-16.364-136.26 0-46.531 19.937-46.56 60.96 0 80.91 38.092 16.34 98.107 16.366 136.26 0 46.528-19.936 46.56-60.96 0-80.91zm-68.13 63.171c-47.9 0-73-16.88-73-22.72 0-5.83 25.1-22.71 73-22.71s73 16.88 73 22.71c0 5.839-25.1 22.72-73 22.72z" fill="#eef4ff"/><path d="m255 130.681v-30c47.9 0 73-16.88 73-22.72 0-5.83-25.1-22.71-73-22.71v-30c25.49 0 49.69 4.35 68.13 12.26 64.773 27.753 38.076 93.17-68.13 93.17z" fill="#d9e6fc"/><path d="m206.81 401.251h-15.304l-49.995-49c-.05-.1 0 1.381 0-15h-7.769l-25.38-48.999c0-.101-.878 2.194 19.584-49.001h5.996v-30h-133.942v15c0 22.194 9.213 42.267 24 56.632v7.368c0 22.194 9.213 42.267 24 56.632v7.368c0 43.561 35.439 79 79 79h79.81c0-2.686 0-27.315 0-30z" fill="#eef4ff"/><path d="m376.06 209.251v30h5.996c20.425 51.103 19.584 48.901 19.584 49.001l-25.35 48.999h-7.76c0 16.346.05 14.9 0 15l-49.789 49h-15.241v30h79.5c43.561 0 79-35.439 79-79v-7.368c14.787-14.365 24-34.438 24-56.632v-7.368c14.787-14.365 24-34.438 24-56.632v-15z" fill="#d9e6fc"/><path d="m416.63 288.92c-1.11 24.88-11.51 48.28-29.31 65.88l-132.04 129.95c-33.994-32.779-28.56-29.5-32.28-29.5v-2.13l-100.27-98.26c-40.549-40.117-38.044-104.967.28-140.91 34.176-34.217 91.497-39.089 131.99-7.84 67.167-51.831 165.4-1.698 161.63 82.81z" fill="#f87eb8"/><path d="m416.63 288.92c-1.11 24.88-11.51 48.28-29.31 65.88l-132.04 129.95c-.435-.42-.28 12.81-.28-278.64 67.346-51.97 165.39-1.466 161.63 82.81z" fill="#f96192"/></g></svg>