<svg xmlns="http://www.w3.org/2000/svg" viewBox="0 0 635.899 121.673"><defs><radialGradient id="a" cx="-495.617" cy="651.886" r=".214" gradientTransform="matrix(89.53685 0 0 -89.53685 44431.248 58412.312)" gradientUnits="userSpaceOnUse"><stop offset="0" stop-color="#797979"/><stop offset="1" stop-color="#4c4c4c"/></radialGradient></defs><circle cx="54.627" cy="54.627" r="54.509" fill="#f5bb60"/><circle cx="49.07" cy="49.07" r="49.07" fill="#e86f32"/><circle cx="55.573" cy="42.566" r="42.566" fill="#e53d42"/><circle cx="59.002" cy="45.995" r="39.138" fill="#bfd141"/><circle cx="56.164" cy="48.833" r="36.3" fill="#6db64c"/><circle cx="50.37" cy="43.158" r="30.506" fill="#afdbe7"/><circle cx="55.336" cy="38.073" r="25.54" fill="#57badf"/><circle cx="58.529" cy="41.266" r="22.466" fill="#02b2d6"/><circle cx="55.218" cy="44.458" r="19.155" fill="url(#a)"/><circle cx="55.218" cy="44.458" r="19.155" fill="#231f20"/><path d="M60.249 41.948c1.899.853 4.518-.862 5.85-3.83s.87-6.064-1.028-6.916-4.519.863-5.85 3.83-.872 6.064 1.028 6.916z" fill="#fff"/><text transform="translate(127.135 85.133)" font-size="90" font-family="Athelas-Regular,Athelas">B<tspan x="53.819" y="0" letter-spacing="-.025em">r</tspan><tspan x="85.68" y="0" letter-spacing="-.02em">o</tspan><tspan x="130.41" y="0" letter-spacing="-.015em">w</tspan><tspan x="194.039" y="0">ser</tspan><tspan x="304.828" y="0" letter-spacing="-.015em">S</tspan><tspan x="353.157" y="0">tack</tspan></text></svg>