<?xml version="1.0" encoding="utf-8"?>
<!-- Generator: Adobe Illustrator 24.2.0, SVG Export Plug-In . SVG Version: 6.00 Build 0)  -->
<svg version="1.1" id="Layer_1" xmlns="http://www.w3.org/2000/svg" xmlns:xlink="http://www.w3.org/1999/xlink" x="0px" y="0px"
	 viewBox="0 0 128 128" style="enable-background:new 0 0 128 128;" xml:space="preserve">
<style type="text/css">
	.st0{fill:#FFFFFF;}
</style>
<g>
	<path class="st0" d="M103.2,63.6c0-0.1,0-0.1,0-0.2c0-0.1,0-0.1-0.1-0.2c0-0.1,0-0.1,0-0.2c0-0.1-0.1-0.1-0.1-0.2
		c0,0,0-0.1-0.1-0.1L65.7,1l0,0c-0.1-0.1-0.2-0.3-0.3-0.4c0,0,0,0-0.1,0c-0.1-0.1-0.2-0.2-0.3-0.2c0,0-0.1,0-0.1-0.1
		c-0.1-0.1-0.2-0.1-0.3-0.1h-0.1C64.3,0,64.2,0,64,0s-0.3,0-0.5,0.1h-0.1c-0.1,0-0.2,0.1-0.3,0.1c0,0-0.1,0-0.1,0.1
		c-0.1,0.1-0.2,0.1-0.3,0.2c0,0,0,0-0.1,0c-0.1,0.1-0.2,0.2-0.3,0.4l0,0L25.1,62.7c0,0,0,0.1-0.1,0.1c0,0.1-0.1,0.1-0.1,0.2
		c0,0.1,0,0.1,0,0.2c0,0.1,0,0.1-0.1,0.2c0,0.1,0,0.1,0,0.2c0,0.1,0,0.1,0,0.2c0,0.1,0,0.1,0,0.2s0,0.1,0,0.2l0,0
		c0,0.1,0,0.1,0.1,0.2v0.1l0,0c0.1,0.2,0.2,0.3,0.3,0.4l0.1,0.1c0.1,0.1,0.2,0.2,0.3,0.3c0,0,0.1,0,0.1,0.1l0,0L63,87.2
		c0,0,0,0,0.1,0c0.1,0.1,0.2,0.1,0.3,0.1h0.1c0.2,0,0.3,0.1,0.5,0.1s0.3,0,0.5-0.1h0.1c0.1,0,0.2-0.1,0.3-0.1c0,0,0,0,0.1,0
		l37.2-21.7l0,0c0.1,0,0.1-0.1,0.2-0.1l0.1-0.1c0.1-0.1,0.1-0.1,0.2-0.2l0.1-0.1c0-0.1,0.1-0.1,0.1-0.2s0.1-0.1,0.1-0.2l0,0
		c0-0.1,0-0.1,0.1-0.2c0-0.1,0-0.1,0.1-0.2l0,0c0-0.1,0-0.2,0-0.2c0-0.1,0-0.1,0-0.2C103.2,63.8,103.2,63.7,103.2,63.6z M62,45.6
		L31.9,59.3L62,9.2V45.6z M62,50v32L31.2,64L62,50z M66,50l30.8,14L66,82V50z M66,45.6V9.2l30.1,50.1L66,45.6z"/>
	<path class="st0" d="M100.1,72L64,93.7L27.9,72c-0.8-0.5-1.9-0.3-2.5,0.4c-0.6,0.7-0.7,1.7-0.2,2.5l37.2,52.2c0,0,0,0,0.1,0.1
		s0.1,0.2,0.2,0.2l0.1,0.1c0.1,0.1,0.2,0.1,0.2,0.2c0,0,0.1,0,0.1,0.1c0.1,0,0.2,0.1,0.3,0.1h0.1c0.1,0,0.3,0.1,0.4,0.1
		c0.2,0,0.3,0,0.4-0.1h0.1c0.1,0,0.2-0.1,0.3-0.1c0,0,0.1,0,0.1-0.1c0.1,0,0.2-0.1,0.2-0.2l0.1-0.1c0.1-0.1,0.2-0.2,0.2-0.2
		s0,0,0.1-0.1l37.2-52.2c0.5-0.8,0.5-1.8-0.2-2.5S101,71.6,100.1,72z M62,97.1v22.6L34,80.4L62,97.1z M66,119.7V97.1l28-16.8
		L66,119.7z"/>
</g>
</svg>
