<svg height="512" viewBox="0 0 510 510" width="512" xmlns="http://www.w3.org/2000/svg"><path d="M0 382.5C0 452.802 57.194 510 127.5 510l7.5-127.5-7.5-127.5C57.198 255 0 312.194 0 382.5z" fill="#4e6ba6"/><path d="M127.5 255v255c70.302 0 127.5-57.194 127.5-127.5 0-70.302-57.194-127.5-127.5-127.5z" fill="#28487a"/><path d="M30 382.5c0 25.87 10.194 50.353 28.295 68.609L135 382.5l-7.5-97.5C73.739 285 30 328.737 30 382.5z" fill="#f9f9f9"/><path d="M127.5 285v97.5l69.205 68.609C214.774 432.885 225 408.414 225 382.5c0-53.76-43.736-97.5-97.5-97.5z" fill="#e2dff4"/><path d="M58.295 451.109C76.567 469.539 101.291 480 127.5 480l7.5-37.5-7.5-37.5a74.556 74.556 0 00-41.561 12.599c-12.21 8.162-21.904 19.81-27.644 33.51z" fill="#8493fb"/><path d="M127.5 405v75c26.162 0 50.899-10.428 69.205-28.891-5.74-13.7-15.434-25.348-27.645-33.51A74.55 74.55 0 00127.5 405z" fill="#6666fa"/><path d="M503.033 334.394L450 281.36l-53.033 53.034 21.213 21.212 16.82-16.82V450H270v30h195V338.786l16.82 16.82z" fill="#8493fb"/><path d="M240 62.574v-30H45v141.213l-16.82-16.82L6.967 178.18 60 231.213l53.033-53.033-21.214-21.213L75 173.787V62.574z" fill="#dd4e4e"/><path d="M82.5 382.5c0 12.406 5.047 23.656 13.195 31.805 8.149 8.148 19.399 13.195 31.805 13.195l7.5-45-7.5-45c-12.406 0-23.656 5.047-31.805 13.195C87.547 358.844 82.5 370.094 82.5 382.5z" fill="#edbba7"/><path d="M127.5 337.5v90c12.406 0 23.656-5.047 31.805-13.195 8.148-8.148 13.195-19.398 13.195-31.805 0-24.812-20.186-45-45-45z" fill="#e8a38b"/><path d="M255 127.5c0 70.302 57.194 127.5 127.5 127.5l7.5-127.5L382.5 0C312.198 0 255 57.194 255 127.5z" fill="#4e6ba6"/><path d="M382.5 0v255c70.302 0 127.5-57.194 127.5-127.5C510 57.198 452.806 0 382.5 0z" fill="#28487a"/><path d="M313.295 196.109L390 127.5 382.5 30c-26.881 0-51.256 10.935-68.91 28.589-37.99 37.99-38.152 99.336-.295 137.52z" fill="#f9f9f9"/><path d="M382.5 30v97.5l69.205 68.609C469.774 177.885 480 153.414 480 127.5c0-53.76-43.736-97.5-97.5-97.5z" fill="#e2dff4"/><path d="M313.295 196.109C331.567 214.539 356.291 225 382.5 225l7.5-37.5-7.5-37.5c-30.693 0-57.699 18.651-69.205 46.109z" fill="#bfe85f"/><path d="M382.5 150v75c26.162 0 50.899-10.428 69.205-28.891-5.74-13.7-15.434-25.348-27.645-33.51A74.55 74.55 0 00382.5 150z" fill="#00cb76"/><path d="M337.5 127.5c0 24.812 20.185 45 45 45l7.5-45-7.5-45c-12.406 0-23.656 5.047-31.805 13.195-8.148 8.149-13.195 19.399-13.195 31.805z" fill="#edbba7"/><path d="M382.5 82.5v90c12.406 0 23.656-5.047 31.805-13.195 8.148-8.148 13.195-19.398 13.195-31.805 0-24.812-20.186-45-45-45z" fill="#e8a38b"/></svg>