<?xml version="1.0" encoding="utf-8"?>
<!-- Generator: Adobe Illustrator 24.2.0, SVG Export Plug-In . SVG Version: 6.00 Build 0)  -->
<svg version="1.1"
	 id="Layer_1" xmlns:cc="http://creativecommons.org/ns#" xmlns:dc="http://purl.org/dc/elements/1.1/" xmlns:osb="http://www.openswatchbook.org/uri/2009/osb" xmlns:rdf="http://www.w3.org/1999/02/22-rdf-syntax-ns#"
	 xmlns="http://www.w3.org/2000/svg" xmlns:xlink="http://www.w3.org/1999/xlink" x="0px" y="0px" viewBox="0 0 512 512"
	 style="enable-background:new 0 0 512 512;" xml:space="preserve">
<style type="text/css">
	.st0{fill:#FFFFFF;}
	.st1{fill:#FFFFFF;fill-opacity:0.251;}
	.st2{fill:#FFFFFF;fill-opacity:3.921600e-02;}
	.st3{fill:#FFFFFF;fill-opacity:0.1302;}
</style>
<g transform="translate(-50.017 -515.51)">
	<path class="st0" d="M84.3,899.5l221.7,128l221.7-128v-256L306,515.5l-221.7,128L84.3,899.5z"/>
	<path marker-start="" class="st0" d="M283.1,546.3l-160.7,92.8c0.3,2.9,0.3,5.7,0,8.6l160.8,92.8c13.6-10,32-10,45.6,0l160.8-92.8
		c-0.3-2.9-0.3-5.7,0-8.6l-160.7-92.8C315.2,556.4,296.7,556.4,283.1,546.3L283.1,546.3z M504.9,673.4L344,767.2
		c1.9,16.7-7.4,32.8-22.8,39.5l0.2,184.6c2.6,1.1,5.1,2.6,7.4,4.3l160.8-92.8c-1.9-16.7,7.4-32.8,22.8-39.5V677.7
		C509.7,676.5,507.2,675.1,504.9,673.4L504.9,673.4z M107.1,674.4c-2.3,1.7-4.8,3.1-7.4,4.3v185.6c15.4,6.7,24.7,22.8,22.8,39.5
		l160.7,92.8c2.3-1.7,4.8-3.1,7.4-4.3V806.7c-15.4-6.7-24.7-22.8-22.8-39.5L107.1,674.4L107.1,674.4z"/>
</g>
<g transform="translate(0 -196.66)">
	<path class="st1" d="M256,708.7l221.7-128v-256L256,452.7V708.7z"/>
	<path class="st2" d="M256,708.7v-256l-221.7-128v256L256,708.7z"/>
	<path class="st3" d="M34.3,324.7l221.7,128l221.7-128L256,196.7C256,196.7,34.3,324.7,34.3,324.7z"/>
</g>
</svg>
