<?xml version="1.0" encoding="utf-8"?>
<!-- Generator: Adobe Illustrator 24.2.0, SVG Export Plug-In . SVG Version: 6.00 Build 0)  -->
<svg version="1.1" id="Layer_1" xmlns="http://www.w3.org/2000/svg" xmlns:xlink="http://www.w3.org/1999/xlink" x="0px" y="0px"
	 viewBox="0 0 500.8 500.8" style="enable-background:new 0 0 500.8 500.8;" xml:space="preserve">
<style type="text/css">
	.st0{display:none;fill:#F15249;}
	.st1{display:none;fill:#C93131;}
	.st2{fill:#FCFBE6;}
	.st3{fill:#EDEBD3;}
	.st4{fill:#DDDAC0;}
	.st5{fill:#C6C2A7;}
	.st6{fill:#FCCC32;}
	.st7{fill:#EFAE0C;}
	.st8{fill:#5E6664;}
	.st9{fill:#2F423F;}
	.st10{fill:#7FD6EA;}
	.st11{fill:#52C1DB;}
	.st12{fill:#FF5252;}
</style>
<circle class="st0" cx="250.3" cy="244" r="244"/>
<path class="st1" d="M423.1,71.2c95.2,95.2,95.2,249.6,0,344.8s-249.6,95.2-344.8,0"/>
<polygon class="st2" points="79.9,81.6 250.3,14.4 420.7,81.6 385.5,235.2 250.3,302.4 115.1,235.2 "/>
<polygon class="st3" points="406.3,146.4 420.7,81.6 250.3,133.6 79.9,81.6 95.1,146.4 51.1,413.6 250.3,500.8 449.5,413.6 "/>
<polygon class="st4" points="389.5,224 423.1,252.8 406.3,146.4 419.9,85.6 356.7,159.2 308.7,166.4 271.1,213.6 250.3,295.2 
	229.5,213.6 191.9,166.4 143.9,159.2 80.7,84.8 95.1,146.4 77.5,252.8 111.1,224 250.3,386.4 250.3,386.4 "/>
<polygon class="st5" points="311.1,253.6 249.5,384.8 188.7,253.6 249.5,208.8 "/>
<polyline class="st6" points="249.5,305.6 303.9,249.6 280.7,229.6 249.5,181.6 249.5,184 249.5,181.6 219.1,229.6 195.1,249.6 
	244.7,300.8 "/>
<polyline class="st7" points="249.5,305.6 303.9,249.6 280.7,229.6 249.5,181.6 249.5,184 249.5,181.6 "/>
<polygon class="st8" points="194.3,202.4 146.3,187.2 146.3,159.2 194.3,174.4 "/>
<polyline class="st9" points="194.3,174.4 194.3,202.4 146.3,187.2 "/>
<ellipse class="st10" cx="168.7" cy="180.8" rx="13.6" ry="12"/>
<path class="st11" d="M178.3,172c5.6,4.8,5.6,12,0,16.8s-13.6,4.8-19.2,0"/>
<polygon class="st8" points="306.3,202.4 354.3,187.2 354.3,159.2 306.3,174.4 "/>
<polyline class="st9" points="306.3,174.4 306.3,202.4 354.3,187.2 "/>
<ellipse class="st10" cx="331.1" cy="180.8" rx="13.6" ry="12"/>
<path class="st11" d="M321.5,188.8c5.6,4.8,13.6,4.8,19.2,0s5.6-12,0-16.8"/>
<g>
	<polygon class="st12" points="51.1,413.6 82.3,392.8 87.9,421.6 115.9,408.8 124.7,436.8 150.3,421.6 162.3,452.8 188.7,434.4 
		203.1,469.6 226.3,447.2 250.3,500.8 	"/>
	<polygon class="st12" points="449.5,413.6 418.3,392.8 412.7,421.6 384.7,408.8 375.9,436.8 350.3,421.6 338.3,452.8 311.9,434.4 
		297.5,469.6 274.3,447.2 250.3,500.8 	"/>
</g>
</svg>
