<svg height="512" width="512" xmlns="http://www.w3.org/2000/svg"><path d="M16.863 511.881c-9.706 1.213-17.958-7.039-16.745-16.745l6.744-53.955c1.865-14.919 9.369-28.193 21.16-37.469 12.392-9.748 28.402-13.659 44.01-11.43l1.467.21c.026.004.05.016.068.034l45.906 45.906c.073.045.213 1.469.244 1.535 2.23 15.608-1.681 31.618-11.43 44.01-9.276 11.791-22.55 19.295-37.469 21.16z" fill="#fff68e"/><path d="M16.863 511.881l53.955-6.744c14.919-1.865 28.193-9.369 37.469-21.16 9.749-12.392 13.659-28.402 11.43-44.01-.031-.066-.17-1.491-.244-1.535L96.52 415.479 4.396 507.604c3.125 3.124 7.614 4.884 12.467 4.277z" fill="#ffde55"/><path d="M506.413 276.996c-3.273-12.735-10.249-28.054-20.735-45.529-20.646-34.41-53.284-74.628-91.9-113.245s-78.835-71.254-113.245-91.9C263.058 15.836 247.739 8.86 235.004 5.587c-17.234-4.43-30.428-2.219-39.216 6.569s-10.999 21.982-6.569 39.216c3.273 12.735 10.25 28.053 20.735 45.529 10.798 17.997 24.882 37.584 41.381 57.699l74.664 31.402 31.402 74.664c20.115 16.499 39.702 30.582 57.699 41.381 17.476 10.485 32.794 17.462 45.529 20.735 17.234 4.43 30.428 2.219 39.216-6.569s10.998-21.983 6.568-39.217z" fill="#9bfbff"/><path d="M357.4 260.666c20.115 16.499 39.702 30.582 57.699 41.381 17.476 10.485 32.794 17.462 45.529 20.735 17.234 4.43 30.428 2.219 39.216-6.569s10.999-21.983 6.569-39.216c-3.273-12.735-10.249-28.054-20.735-45.529-20.646-34.41-53.284-74.628-91.9-113.245l-67.78 67.78z" fill="#5ecef4"/><path d="M163 467.857l31.47-69.234-81.094-81.094L44.143 349a15 15 0 00-4.399 24.262l98.995 98.995a14.999 14.999 0 0024.261-4.4z" fill="#09607d"/><path d="M138.738 472.257A14.999 14.999 0 00163 467.858l31.47-69.234-40.547-40.547-64.682 64.682z" fill="#07485e"/><path d="M138.738 373.262c-38.617-38.617-71.254-78.835-91.9-113.245-10.486-17.475-17.462-32.794-20.735-45.529-4.43-17.234-2.219-30.428 6.569-39.216s21.982-10.999 39.216-6.569c12.735 3.273 28.054 10.249 45.529 20.735 34.41 20.646 74.628 53.284 113.245 91.9s71.254 78.835 91.9 113.245c10.486 17.475 17.462 32.794 20.735 45.529 4.43 17.234 2.219 30.428-6.569 39.216s-21.982 10.999-39.216 6.569c-12.735-3.273-28.054-10.249-45.529-20.735-34.41-20.646-74.628-53.283-113.245-91.9zM54.025 196.625c-.974 4.084 1.103 20.26 21.756 53.203 19.561 31.201 49.453 67.504 84.17 102.22s71.019 64.608 102.22 84.17c32.943 20.653 49.119 22.73 53.203 21.756.974-4.084-1.103-20.26-21.756-53.203-19.561-31.201-49.453-67.504-84.17-102.22s-71.019-64.608-102.22-84.17c-32.943-20.653-49.119-22.729-53.203-21.756zm261.159 261.924l.008.008z" fill="#9bfbff"/><path d="M482.591 129.921L382.079 29.409a182.553 182.553 0 00-29.385 23.831l-50.84 50.84c-5.858 5.858-5.858 15.355 0 21.213l84.853 84.853c5.858 5.858 15.355 5.858 21.213 0l50.84-50.84a182.51 182.51 0 0023.831-29.385z" fill="#fff5f5"/><path d="M386.707 210.146c5.858 5.858 15.355 5.858 21.213 0l50.839-50.84a182.5 182.5 0 0023.831-29.385l-50.256-50.256-88.054 88.054z" fill="#dfdef5"/><path d="M482.591 129.921c22.106-33.903 32.396-74.439 28.655-115.588a15.001 15.001 0 00-13.58-13.58c-41.149-3.741-81.685 6.549-115.588 28.655 6.037 23.461 18.077 45.694 36.448 64.064 18.372 18.372 40.604 30.412 64.065 36.449z" fill="#ff9100"/><path d="M482.591 129.921c22.106-33.903 32.396-74.439 28.655-115.588a14.972 14.972 0 00-4.332-9.248l-88.388 88.388c18.372 18.371 40.604 30.411 64.065 36.448z" fill="#ff6426"/><path d="M301.854 104.08l-50.52 50.52c15.046 18.344 32.1 37.127 50.52 55.546s37.202 35.474 55.546 50.52l50.52-50.52z" fill="#dfdef5"/><path d="M357.4 260.666l50.52-50.52-53.033-53.033-53.033 53.033c18.419 18.419 37.202 35.474 55.546 50.52z" fill="#d2d0f2"/><path d="M293.619 404.772c20.653 32.943 22.73 49.119 21.756 53.203-4.084.974-20.26-1.103-53.203-21.756-31.201-19.561-67.504-49.453-102.22-84.17l-21.213 21.213c38.617 38.617 78.835 71.254 113.245 91.9 17.475 10.486 32.794 17.461 45.529 20.735 17.234 4.43 30.428 2.219 39.216-6.569s10.999-21.982 6.569-39.216c-3.273-12.735-10.249-28.054-20.735-45.529-20.646-34.41-53.284-74.628-91.9-113.245l-21.213 21.213c34.715 34.717 64.607 71.02 84.169 102.221z" fill="#5ecef4"/></svg>