<svg id="Capa_1" enable-background="new 0 0 512.36 512.36" height="512" viewBox="0 0 512.36 512.36" width="512" xmlns="http://www.w3.org/2000/svg"><g><path d="m384.18 130.36-72 312h-112l-72-312z" fill="#eef4ff"/><path d="m384.18 130.36-72 312h-56v-312z" fill="#d9e6fc"/><path d="m457.93 185.94 32 48-167.7 278.42h-132.1l-167.7-278.42 32-48-50.24-83.74 143.08-102.2 11.61 74.86c32.773 122.524 10.444 45.347 97.3 331.81 87.055-287.119 64.302-208.445 97.3-331.81l11.61-74.86 143.08 102.2z" fill="#514899"/><path d="m457.93 185.94 32 48-167.7 278.42h-66.05v-105.69c87.055-287.119 64.302-208.445 97.3-331.81l11.61-74.86 143.08 102.2z" fill="#39326c"/><path d="m129.18 48.016v164.687l106.242-63.045v-38.596z" fill="#f96192"/><path d="m276.938 111.062v38.596l106.242 63.045v-164.687z" fill="#fe3d80"/><ellipse cx="256.18" cy="130.36" fill="#f87eb8" rx="52.33" ry="52.33" transform="matrix(.993 -.122 .122 .993 -14.008 32.278)"/><path d="m308.51 130.36c0 28.86-23.47 52.33-52.33 52.33v-104.66c28.86 0 52.33 23.47 52.33 52.33z" fill="#f96192"/><path d="m240.18 217.36h32v30h-32z" fill="#514899"/><path d="m256.18 217.36h16v30h-16z" fill="#39326c"/></g></svg>