<svg xmlns="http://www.w3.org/2000/svg" width="1000" height="376.469" viewBox="0 0 264.583 99.607"><g font-size="44.676" font-family="Centra No2" fill="#232a31"><path d="M107.548 75.728c0-2.146 1.398-3.105 3.278-3.105 1.006 0 1.749.228 2.404.548v-6.894c-1.005-.503-2.404-.777-3.846-.777-6.164 0-9.792 3.79-9.792 10.045v.594h-2.93v6.712h2.93v16.117h7.956V82.851h5.376v-6.712h-5.376zM124.115 98.968v-22.83h-8v22.83zm.481-29.267c0-2.466-1.967-4.611-4.503-4.611-2.448 0-4.458 2.1-4.458 4.611 0 2.511 2.01 4.612 4.458 4.612 2.536 0 4.503-2.146 4.503-4.612zM135.38 86.823c0-2.374 1.136-3.698 2.885-3.698 1.748 0 2.797 1.278 2.797 3.607v12.236h8v-14.52c0-5.524-2.885-8.948-7.606-8.948-2.667 0-4.853 1.187-6.077 3.424V76.14h-8v22.83h8zM162.144 75.682c-6.612 0-10.853 5.982-10.853 11.963 0 6.666 4.652 11.962 10.762 11.962 4.56 0 6.293-2.785 6.293-2.785v2.192h7.706V76.23h-7.706v2.055s-1.961-2.603-6.202-2.603zm1.642 7.351c3.1 0 4.651 2.42 4.651 4.612 0 2.374-1.687 4.703-4.651 4.703-2.417 0-4.651-2.01-4.651-4.612 0-2.602 1.778-4.703 4.65-4.703zM187.836 86.823c0-2.374 1.137-3.698 2.885-3.698 1.749 0 2.798 1.278 2.798 3.607v12.236h8v-14.52c0-5.524-2.886-8.948-7.607-8.948-2.666 0-4.852 1.187-6.076 3.424V76.14h-8v22.83h8zM203.88 87.554c0 7.396 5.07 12.053 11.67 12.053 1.706 0 3.542-.365 5.246-1.278v-7.58c-1.224.914-2.535 1.37-3.978 1.37-2.797 0-4.852-1.826-4.852-4.565 0-2.74 2.055-4.566 4.852-4.566 1.4 0 2.71.41 3.978 1.278v-7.58c-1.53-.775-3.41-1.186-5.114-1.186-6.863 0-11.803 5.068-11.803 12.054zM238.2 90.932c-.831 1.416-1.88 2.01-3.63 2.01-2.097 0-3.846-1.325-4.02-3.288h15.124c.044-.411.088-.959.088-1.69 0-7.533-4.59-12.464-11.41-12.464-6.6 0-11.628 5.16-11.628 12.054 0 7.168 4.896 12.053 11.89 12.053 4.94 0 8.656-2.191 10.448-6.163zm-7.607-6.072c.175-1.69 1.661-2.968 3.716-2.968 2.054 0 3.54 1.187 3.715 2.968z" style="line-height:1.25;-inkscape-font-specification:'Centra No2'"/></g><g fill="#ffffff" transform="translate(260.955 41.214)"><path d="M-260.955-23.352h15.74l9.166 23.45 9.285-23.45h15.326l-23.078 55.514h-15.423l6.317-14.71zM-195.471-24.285c-11.827 0-19.304 10.607-19.304 21.17 0 11.886 8.197 21.31 19.08 21.31 8.117 0 11.177-4.946 11.177-4.946V17.1h13.73V-23.35h-13.73v3.677s-3.414-4.611-10.953-4.611zm2.92 13c5.457 0 8.273 4.318 8.273 8.214 0 4.196-3.017 8.313-8.273 8.313-4.356 0-8.293-3.56-8.293-8.134 0-4.64 3.166-8.393 8.293-8.393zM-166.06 17.101v-58.315h14.36v21.68s3.41-4.746 10.554-4.746c8.738 0 13.857 6.51 13.857 15.814V17.1h-14.254V-4.964c0-3.148-1.5-6.19-4.897-6.19-3.458 0-5.26 3.088-5.26 6.19v22.065zM-102.805-24.28c-13.545 0-21.61 10.299-21.61 21.333 0 12.557 9.765 21.142 21.66 21.142 11.53 0 21.62-8.195 21.62-20.931 0-13.936-10.564-21.544-21.67-21.544zm.129 13.114c4.784 0 8.094 3.985 8.094 8.234 0 3.624-3.084 8.094-8.094 8.094-4.59 0-8.036-3.682-8.036-8.134 0-4.288 2.864-8.194 8.036-8.194zM-57.213-24.28c-13.544 0-21.609 10.299-21.609 21.333 0 12.557 9.765 21.142 21.66 21.142 11.53 0 21.619-8.195 21.619-20.931 0-13.936-10.563-21.544-21.67-21.544zm.13 13.114c4.784 0 8.094 3.985 8.094 8.234 0 3.624-3.085 8.094-8.095 8.094-4.59 0-8.035-3.682-8.035-8.134 0-4.288 2.864-8.194 8.035-8.194z"/><circle cx="-24.212" cy="8.425" r="9.535"/><path d="M-11.543-4.614H-28.71l15.236-36.6H3.628z"/></g></svg>