<?xml version="1.0" encoding="utf-8"?>
<!-- Generator: Adobe Illustrator 24.2.0, SVG Export Plug-In . SVG Version: 6.00 Build 0)  -->
<svg version="1.1" id="layer" xmlns="http://www.w3.org/2000/svg" xmlns:xlink="http://www.w3.org/1999/xlink" x="0px" y="0px"
	 viewBox="0 0 108 116" style="enable-background:new 0 0 108 116;" xml:space="preserve">
<style type="text/css">
	.st0{fill:#63D2F9;}
	.st1{fill:#4E5EE4;}
	.st2{fill:#63B0F9;}
	.st3{display:none;fill:#282846;}
</style>
<path id="Stroke-1" class="st0" d="M96.3,106.2V81.9H69.8c-7.2,0-13.9,3.8-17.6,10l-8.6,14.4h52.7V106.2z"/>
<polygon id="Stroke-3" class="st1" points="11.9,12.7 11.9,37.1 81.7,37.1 96.3,12.7 "/>
<path id="Stroke-5" class="st2" d="M45.3,50.8L12,106.2h28.4l39.8-66.3H64.6C56.7,39.9,49.4,44,45.3,50.8z"/>
<path id="OpenZeppelin" class="st3" d="M156.6,82.9c-14.3,0-24.8-10.4-24.8-24.3c0-13.8,10.6-24.3,24.8-24.3s24.8,10.6,24.8,24.3
	C181.6,72.3,170.9,82.9,156.6,82.9z M156.7,74.4c9,0,15.5-6.7,15.5-15.8c0-9-6.5-15.8-15.5-15.8c-9.1,0-15.6,6.8-15.6,15.8
	C141.2,67.7,147.6,74.4,156.7,74.4z M191.1,97.4V46.8h8.6v4.5h0.5c0.9-1.5,4.2-5.4,10.6-5.4c9.9,0,16.7,7.4,16.7,18.3
	s-6.7,18.6-16.4,18.6c-6.3,0-9.6-3.5-10.8-5.4h-0.5v19.9h-8.7V97.4z M209.2,75c5.7,0,9.5-4.4,9.5-10.6c0-6.4-3.8-10.6-9.6-10.6
	s-9.4,4.6-9.4,10.6C199.7,70.9,203.7,75,209.2,75z M252.6,82.9c-10.4,0-17.8-7.8-17.8-18.3c0-11.1,7.5-18.7,17.8-18.7
	c11.4,0,17.6,8.4,17.6,18.3v2.7h-26.9c0.3,5.4,4,9,9.6,9c4.3,0,7.6-2,8.8-4.9h8.1C268.1,78.2,261.7,82.9,252.6,82.9z M243.4,60.8
	h18.4c-0.4-4.8-4.1-7.9-9.2-7.9C247.7,52.9,243.9,56.3,243.4,60.8z M279.6,82V46.8h8.3v4.3h0.5c1.4-2.6,4.9-5.2,10-5.2
	c7.9,0,12.8,5.6,12.8,13.1v23h-8.8V61.3c0-4.3-2.8-7.2-6.8-7.2c-4.2,0-7.3,3.3-7.3,7.8V82H279.6z M319.8,82v-8l24.5-30.7v-0.5h-23.6
	v-7.7h34.8V43L331,73.8v0.5h24.6V82H319.8z M379.3,82.9c-10.4,0-17.8-7.8-17.8-18.3c0-11.1,7.5-18.7,17.8-18.7
	c11.4,0,17.6,8.4,17.6,18.3v2.7H370c0.3,5.4,4,9,9.6,9c4.3,0,7.6-2,8.8-4.9h8.1C394.8,78.2,388.5,82.9,379.3,82.9z M370.1,60.8h18.4
	c-0.4-4.8-4.1-7.9-9.2-7.9C374.4,52.9,370.7,56.3,370.1,60.8z M406.3,97.4V46.8h8.6v4.5h0.5c0.9-1.5,4.2-5.4,10.6-5.4
	c9.9,0,16.7,7.4,16.7,18.3s-6.7,18.6-16.4,18.6c-6.3,0-9.6-3.5-10.8-5.4H415v19.9h-8.7V97.4z M424.4,75c5.7,0,9.5-4.4,9.5-10.6
	c0-6.4-3.8-10.6-9.6-10.6c-5.8,0-9.4,4.6-9.4,10.6C414.9,70.9,418.9,75,424.4,75z M452.2,97.4V46.8h8.6v4.5h0.5
	c0.9-1.5,4.2-5.4,10.6-5.4c9.9,0,16.7,7.4,16.7,18.3s-6.7,18.6-16.4,18.6c-6.3,0-9.6-3.5-10.8-5.4h-0.5v19.9h-8.7V97.4z M470.2,75
	c5.7,0,9.5-4.4,9.5-10.6c0-6.4-3.8-10.6-9.6-10.6c-5.8,0-9.4,4.6-9.4,10.6C460.7,70.9,464.8,75,470.2,75z M513.7,82.9
	c-10.4,0-17.8-7.8-17.8-18.3c0-11.1,7.5-18.7,17.8-18.7c11.4,0,17.6,8.4,17.6,18.3v2.7h-26.9c0.3,5.4,4,9,9.6,9c4.3,0,7.6-2,8.8-4.9
	h8.1C529.1,78.2,522.8,82.9,513.7,82.9z M504.4,60.8h18.4c-0.4-4.8-4.1-7.9-9.2-7.9C508.7,52.9,505,56.3,504.4,60.8z M549.3,82
	c-6.2,0-9.7-3.7-9.7-9.9V31.8h8.8v39.5c0,2,1,3.1,2.8,3.1h1.4V82L549.3,82L549.3,82z M565.4,42.1c-3.2,0-5.4-1.9-5.4-5.1
	c0-3,2.2-5,5.4-5s5.4,2,5.4,5C570.7,40.2,568.5,42.1,565.4,42.1z M561,82V46.8h8.8V82H561z M580.4,82V46.8h8.3v4.3h0.5
	c1.4-2.6,4.9-5.2,10-5.2c7.9,0,12.8,5.6,12.8,13.1v23h-8.8V61.3c0-4.3-2.8-7.2-6.8-7.2c-4.2,0-7.3,3.3-7.3,7.8V82H580.4z"/>
</svg>
