<svg id="Capa_1" enable-background="new 0 0 512 512" height="512" viewBox="0 0 512 512" width="512" xmlns="http://www.w3.org/2000/svg"><g><g id="Vault_4_"><g><g><g><g><path d="m467 481h-392c-24.814 0-45-20.186-45-45v-30h-15c-8.291 0-15-6.709-15-15v-90c0-8.291 6.709-15 15-15h15v-60h-15c-8.291 0-15-6.709-15-15v-90c0-8.291 6.709-15 15-15h15v-30c0-24.814 20.186-45 45-45h392c24.814 0 45 20.186 45 45v360c0 24.814-20.186 45-45 45z" fill="#4086f4"/></g></g></g></g><path d="m467 31h-196v450h196c24.814 0 45-20.186 45-45v-360c0-24.814-20.186-45-45-45z" fill="#4175df"/><g><path d="m437 301c-8.291 0-15-6.709-15-15v-60c0-8.291 6.709-15 15-15s15 6.709 15 15v60c0 8.291-6.709 15-15 15z" fill="#e3e7ea"/></g></g><path d="m333.505 297.294c7.861-11.858 12.495-26.034 12.495-41.294s-4.634-29.436-12.495-41.294l68.101-68.101c5.859-5.859 5.859-15.352 0-21.211s-15.352-5.859-21.211 0l-68.101 68.101c-11.858-7.861-26.034-12.495-41.294-12.495s-29.436 4.634-41.294 12.495l-68.101-68.101c-5.859-5.859-15.352-5.859-21.211 0s-5.859 15.352 0 21.211l68.101 68.101c-7.861 11.858-12.495 26.034-12.495 41.294s4.634 29.436 12.495 41.294l-68.101 68.101c-5.859 5.859-5.859 15.352 0 21.211s15.352 5.859 21.211 0l68.101-68.101c11.858 7.861 26.034 12.495 41.294 12.495s29.436-4.634 41.294-12.495l68.101 68.101c5.859 5.859 15.352 5.859 21.211 0s5.859-15.352 0-21.211zm-107.505-41.294c0-24.814 20.186-45 45-45s45 20.186 45 45-20.186 45-45 45-45-20.186-45-45z" fill="#fff5f5"/><g id="Vault_1_"><path d="m316 256c0 24.814-20.186 45-45 45v30c15.26 0 29.436-4.634 41.294-12.495l68.101 68.101c5.859 5.859 15.352 5.859 21.211 0s5.859-15.352 0-21.211l-68.101-68.101c7.861-11.858 12.495-26.034 12.495-41.294s-4.634-29.436-12.495-41.294l68.101-68.101c5.859-5.859 5.859-15.352 0-21.211s-15.352-5.859-21.211 0l-68.101 68.101c-11.858-7.861-26.034-12.495-41.294-12.495v30c24.814 0 45 20.186 45 45z" fill="#e3e7ea"/></g></g></svg>