<?xml version="1.0" standalone="no"?>
<!DOCTYPE svg PUBLIC "-//W3C//DTD SVG 20010904//EN"
 "http://www.w3.org/TR/2001/REC-SVG-20010904/DTD/svg10.dtd">
<svg version="1.0" xmlns="http://www.w3.org/2000/svg"
 width="512.000000pt" height="512.000000pt" viewBox="0 0 512.000000 512.000000"
 preserveAspectRatio="xMidYMid meet">
<metadata>
Created by potrace 1.11, written by Peter Selinger 2001-2013
</metadata>
<g transform="translate(0.000000,512.000000) scale(0.100000,-0.100000)"
fill="#000000" stroke="none">
<path d="M2378 5115 c-2 -1 -37 -6 -78 -9 -41 -4 -84 -9 -95 -11 -11 -3 -38
-7 -59 -10 -33 -5 -92 -17 -200 -40 -112 -25 -372 -123 -508 -191 -72 -36
-268 -151 -278 -163 -3 -3 -27 -22 -55 -41 -133 -91 -359 -300 -450 -415 -22
-27 -45 -54 -51 -60 -22 -20 -114 -153 -168 -242 -142 -234 -238 -461 -298
-708 -15 -61 -19 -78 -24 -105 -2 -14 -9 -47 -14 -75 -49 -257 -45 -610 11
-895 67 -338 188 -630 381 -919 62 -92 68 -107 63 -140 -9 -63 -25 -155 -30
-177 -5 -23 -9 -21 295 -154 120 -53 188 -89 250 -135 168 -124 392 -250 560
-314 30 -12 64 -26 75 -30 11 -5 29 -12 40 -14 11 -3 63 -19 116 -35 53 -17
109 -33 125 -35 16 -3 51 -10 77 -16 26 -6 66 -14 87 -16 22 -3 122 -41 223
-86 l185 -81 184 80 c102 44 200 83 219 86 392 65 778 228 1081 456 43 33 103
71 131 84 29 12 136 60 239 106 104 45 186 85 183 89 -2 4 -7 30 -10 57 -4 27
-8 56 -10 64 -2 8 -7 36 -10 62 -6 45 -4 51 53 135 212 312 333 611 403 998
38 212 44 539 13 745 -81 552 -315 1031 -679 1395 -144 143 -169 165 -305 268
-331 250 -716 409 -1147 473 -92 14 -514 29 -525 19z"/>
</g>
</svg>
